<?xml version="1.0" encoding="UTF-8"?>
<svg id="uuid-34027724-8ac5-4d31-968f-591ed6dea3e2" data-name="Bongo" xmlns="http://www.w3.org/2000/svg" viewBox="0 0 580 719.75">
  <path d="M465.3,591.54c-3.22.06-.94-.32-1.67-.43,0,0-.06-.52-.06-.52-.05-.54-.26-2.51-.32-3.11-1.63-16.6-4.24-45.18-5.87-62.12-3.33-32.9-5.92-66.2-11.39-98.72-.63-3.09-1.15-6.2-2.22-8.84-.15-.26.08.13-.12-.18,0,0-.52-.75-.52-.75-.71-.98-1.45-1.9-2.24-2.74-2.77-3.11-5.7-4.22-9.33-6.84-8.46-6.53-6.03-18.54-1.19-26.09,6.31-10.18,14.58-17.83,22.56-26.15,3.81-3.93,7.57-7.85,10.65-11.84,2.06-2.73,3.89-5.31,4.56-8.25.37-1.92-.65-2.2-2.26-3.18-10.97-5.33-24.12-3.26-35.7.01-12.49,3.56-25.24,9.66-37.19,15.57-4.81,2.17-9.44,5.11-14.98,5.86-3.64.46-7.85-2.02-8.69-5.9-2.31-10.97,14.94-19.66,22.33-24.92,32.03-20.39,63.01-43.19,85.89-73.88,4.76-6.36,9.52-12.72,13.07-19.73,13.39-27.09,28.65-79.75,16.46-108.18-10.95-24.1-38.68-39.71-64.35-29.14-7.49,3.06-13.5,8.31-19.83,13.49-21.08,17.88-40.96,37.2-60.54,56.71-15.52,15.71-31.19,31.39-45.25,48.41-20.65,25.75-41.93,51.65-60.57,78.82-6.08,9.41-12.31,18.54-18.43,27.78-24.88,36.76-46.41,75.67-70.41,112.78-31.64,51.02-65.73,101.9-81.37,160.45-2.04,7.87-3.6,15.01-4.05,23.09-.6,7.86-1.05,16.04-.45,23.68,1.49,21.74,12.36,32.2,34.68,28.91,9.7-1.42,19.62-5.01,29.09-9.48,9.42-4.48,18.38-9.7,26.41-16.34,24.6-20.32,38.93-49.44,47.82-80.02,7.57-26.04,10.64-53.34,13.14-80.36,6.01-68.76-9.45-145.41-63.53-192.41-10.68-8.58-23.31-14.66-34.56-22.72-12.17-8.39-11.95-18.48,3.05-23.5,11.18-3.62,22.49-3.21,33.94-3.5,19.16-.12,47.17.92,66.62,1.43.44.01.79.38.78.82-.01.43-.36.76-.78.78-25.92,1.11-57.27.94-82.88,3.41-5.31.62-10.64,1.65-15.39,3.46-2.13.77-4.35,1.95-5.83,3.41-.3.32-.54.63-.66.89-.12.24-.21.54-.19.57,0,.07.02.16.1.39.09.22.26.54.53.89,3.17,3.76,7.82,6.15,12.09,8.74,11.77,6.79,25.3,13.28,35.75,23.02,49.33,44.69,68.35,113.61,66.8,178.46-2.25,56.33-8.49,116.14-41.82,163.58-17.03,24.38-42.31,41.76-70.46,51.1-25.68,8.88-56.35,7.75-67.36-21.79-5.21-14.71-4.11-29.76-2.93-44.7,1.01-14.46,5.23-28.7,9.82-42.29,10.62-32.19,26.95-62.13,44.58-90.87,16.7-27.48,36.68-56.99,54.6-83.83,18.47-27.77,36-56.18,55.62-83.03,9.86-13.52,19.08-27.51,29.3-40.6,17.13-21.89,34.9-43.2,52.69-64.55,14.55-16.98,30.38-32.49,46.07-48.32,19.75-19.52,39.58-39.02,60.46-57.39,8.5-7.51,17.93-15.1,29.41-17.59,29.83-7.24,59.94,13.97,68.78,42.26,9.07,31.92-1.92,79.06-15.28,108.95-3.66,8-8.87,15.12-13.9,22.16-23.18,32.34-55.54,56.89-88.97,77.79-4.38,2.84-9.14,5.81-13.11,8.95-1.24,1.02-2.32,1.91-3.1,2.99-.02.03,0,0-.06.11-.1.17-.14.28-.15.3.72-1.87-.3-5.25-2.55-6.62-1.61-1.05-2.81-1.09-3.67-1.03,5.48-1.87,12.23-5.55,17.65-8,15.47-7.18,32.12-14.15,49.65-15.64,16.35-1.75,45.33,5.04,34.6,27.38-4.28,8.27-11.03,14.47-17.18,20.71-3.98,3.93-7.96,7.72-11.69,11.59-5.08,5.5-10.52,11-12.61,17.84-.49,1.84-.41,3.45.07,4.68.23.52.32.7.92,1.23.59.51,1.7,1.19,2.96,2.01,3.93,2.43,7.71,6.17,10.3,10.12,2.89,4.01,3.35,9.47,4.15,13.95,4.37,33.29,5.64,66.55,7.35,99.96.93,20.36,1.6,41.99,2.18,62.38,0,0,.06,2.08.06,2.08l.03,1.04s.02.51.02.51c-.7.18,1.6.33-1.56.48.02-.44.4-.78.84-.76.44.02.78.4.76.84h0Z"/>
  <path d="M432.42,100.9c-6.06,7.55-6.18,21.06-2.64,31.17,5.87,19.37,24.92,38.94,43.85,44.29,22.77,7.53,40.73-4.81,39.86-28.66-1.48-28.14-24.83-59.64-53.7-58.97-10.3.32-21,3.69-27.27,12.06l-.09.13Z" style="stroke: #000; stroke-miterlimit: 10; stroke-width: 9px;"/>
  <path d="M304.02,317.1c.09,11.24-12.97,18.8-22.59,12.81-10.75-6.28-9.42-22.36,2.14-26.87,9.34-4.02,20.64,3.75,20.45,13.86v.2Z" style="stroke: #000; stroke-miterlimit: 10; stroke-width: 6px;"/>
</svg>